<?xml version="1.0" standalone="no"?>
<!DOCTYPE svg PUBLIC "-//W3C//DTD SVG 20010904//EN"
 "http://www.w3.org/TR/2001/REC-SVG-20010904/DTD/svg10.dtd">
<svg version="1.0" xmlns="http://www.w3.org/2000/svg"
 width="1049.421709pt" height="1118.527994pt" viewBox="0 0 1049.421709 1118.527994"
 preserveAspectRatio="xMidYMid meet">
<metadata>
Created by potrace 1.16, written by Peter Selinger 2001-2019
</metadata>
<g transform="translate(-175.546150,1258.675283) scale(0.100000,-0.100000)"
fill="#000000" stroke="none">
<path d="M8333 12575 c-87 -19 -158 -59 -224 -126 -97 -98 -142 -223 -142
-394 0 -65 6 -121 17 -160 37 -127 20 -107 741 -865 165 -173 409 -431 543
-572 438 -464 498 -522 1205 -1167 147 -134 267 -246 267 -249 0 -3 -53 -2
-117 2 -65 4 -341 18 -613 31 -491 25 -510 25 -2510 25 -2259 0 -2251 0 -2670
-71 -708 -120 -1331 -392 -1810 -792 -710 -592 -1128 -1428 -1247 -2497 -13
-117 -17 -243 -18 -510 0 -362 7 -474 46 -739 123 -842 447 -1528 969 -2051
253 -254 509 -439 845 -610 424 -216 855 -337 1445 -406 123 -15 278 -18 1033
-21 634 -3 903 -1 942 7 176 36 317 178 365 366 83 325 -98 636 -400 684 -40
6 -353 10 -826 10 -944 0 -1085 11 -1463 110 -981 257 -1632 912 -1875 1885
-119 480 -127 1061 -19 1545 109 491 309 876 627 1208 420 436 961 681 1721
779 116 14 368 17 2360 23 1227 4 2244 10 2260 14 38 7 905 49 936 44 18 -2
-39 -59 -310 -306 -182 -167 -339 -311 -349 -321 -9 -9 -105 -98 -212 -198
-107 -99 -224 -211 -259 -249 -130 -139 -562 -595 -771 -814 -118 -124 -285
-299 -370 -390 -85 -91 -205 -217 -266 -281 -181 -187 -216 -261 -216 -459 0
-95 4 -128 24 -191 62 -189 196 -305 381 -328 158 -19 294 22 402 120 30 28
149 151 263 273 114 121 333 354 487 517 227 239 772 817 1146 1214 36 39 196
208 355 376 1193 1262 1127 1189 1171 1288 31 69 53 163 53 226 0 115 -46 252
-115 342 -40 52 -238 266 -429 463 -67 69 -227 238 -356 375 -129 138 -320
340 -425 450 -104 110 -253 268 -330 350 -77 83 -221 236 -321 340 -99 105
-295 312 -435 461 -239 254 -579 615 -922 978 -83 87 -173 173 -201 192 -108
71 -257 98 -383 69z"/>
</g>
</svg>
