<?xml version="1.0" standalone="no"?>
<!DOCTYPE svg PUBLIC "-//W3C//DTD SVG 20010904//EN"
 "http://www.w3.org/TR/2001/REC-SVG-20010904/DTD/svg10.dtd">
<svg version="1.0" xmlns="http://www.w3.org/2000/svg"
 width="1199.438946pt" height="1200.629391pt" viewBox="0 0 1199.438946 1200.629391"
 preserveAspectRatio="xMidYMid meet">
<metadata>
Created by potrace 1.16, written by Peter Selinger 2001-2019
</metadata>
<g transform="translate(-92.963451,1293.649429) scale(0.100000,-0.100000)"
fill="#000000" stroke="none">
<path d="M4861 12930 c-112 -24 -354 -130 -613 -270 -990 -534 -1796 -1293
-2395 -2255 -108 -173 -316 -561 -383 -715 -18 -41 -45 -103 -61 -137 -15 -34
-57 -139 -93 -235 -495 -1329 -515 -2808 -57 -4158 212 -627 556 -1262 980
-1810 313 -404 786 -868 1206 -1182 1065 -798 2395 -1237 3745 -1238 1076 0
2076 252 3020 762 1102 597 2040 1567 2603 2693 91 184 110 244 111 360 1 84
-3 108 -22 150 -46 100 -134 164 -256 186 -87 15 -168 3 -346 -51 -546 -166
-1085 -248 -1689 -257 -1152 -18 -2170 185 -3006 600 -476 236 -835 485 -1183
821 -596 577 -1019 1303 -1262 2172 -168 599 -260 1305 -260 1989 0 615 120
1327 316 1871 90 252 87 241 88 359 1 99 -2 116 -26 167 -34 74 -95 132 -166
159 -65 24 -184 33 -251 19z m-805 -1647 c-58 -299 -86 -602 -86 -943 0 -1307
291 -2569 803 -3490 340 -612 742 -1114 1222 -1525 185 -158 353 -286 545
-415 508 -339 1162 -627 1821 -799 631 -166 1211 -243 1994 -267 302 -9 686
20 959 71 44 8 81 14 83 12 4 -5 -104 -139 -231 -287 -198 -229 -520 -529
-781 -725 -108 -81 -395 -271 -520 -345 -124 -73 -351 -190 -465 -240 -52 -23
-118 -53 -146 -65 -27 -13 -115 -48 -195 -78 -1024 -388 -2183 -440 -3271
-147 -512 138 -1059 385 -1512 684 -723 477 -1278 1064 -1719 1817 -373 638
-599 1358 -679 2164 -16 172 -17 741 0 905 106 1028 434 1873 1045 2685 307
409 596 701 1027 1039 68 54 126 94 128 88 2 -6 -8 -68 -22 -139z"/>
</g>
</svg>
