<?xml version="1.0" standalone="no"?>
<!DOCTYPE svg PUBLIC "-//W3C//DTD SVG 20010904//EN"
 "http://www.w3.org/TR/2001/REC-SVG-20010904/DTD/svg10.dtd">
<svg version="1.0" xmlns="http://www.w3.org/2000/svg"
 width="1086.284942pt" height="988.265813pt" viewBox="0 0 1086.284942 988.265813"
 preserveAspectRatio="xMidYMid meet">
<metadata>
Created by potrace 1.16, written by Peter Selinger 2001-2019
</metadata>
<g transform="translate(-156.181640,1193.878178) scale(0.100000,-0.100000)"
fill="#000000" stroke="none">
<path d="M3030 11933 c-122 -12 -329 -72 -464 -133 -73 -33 -210 -116 -286
-173 -138 -105 -311 -291 -402 -433 -227 -354 -329 -722 -315 -1144 10 -309
65 -544 186 -793 120 -248 241 -409 449 -595 189 -170 477 -311 732 -358 132
-25 411 -25 535 0 447 88 836 364 1081 766 282 464 363 1008 228 1549 -60 240
-201 521 -364 726 -59 74 -182 193 -275 266 -199 158 -472 277 -716 313 -96
14 -294 19 -389 9z"/>
<path d="M10564 11925 c-104 -16 -306 -79 -410 -129 -349 -167 -615 -437 -805
-815 -127 -253 -185 -489 -196 -796 -12 -342 53 -658 194 -940 118 -236 219
-373 391 -535 220 -206 477 -342 762 -401 141 -30 417 -32 560 -5 194 37 402
124 589 246 136 89 354 309 450 455 153 231 254 482 303 748 19 105 23 156 23
362 0 207 -3 256 -23 357 -50 266 -155 522 -305 746 -82 122 -252 304 -372
396 -281 217 -603 327 -945 325 -69 -1 -166 -7 -216 -14z"/>
<path d="M5570 10570 c-120 -44 -226 -148 -277 -273 -38 -90 -44 -247 -15
-344 89 -290 395 -428 625 -280 152 99 230 243 229 427 0 202 -98 367 -266
450 -89 44 -209 52 -296 20z"/>
<path d="M6863 10566 c-330 -125 -411 -593 -145 -837 150 -138 332 -155 497
-47 134 88 207 213 221 383 17 200 -90 397 -263 482 -66 33 -85 37 -161 40
-72 3 -98 -1 -149 -21z"/>
<path d="M8179 10575 c-144 -53 -241 -149 -294 -290 -50 -132 -42 -289 21
-413 46 -92 82 -132 169 -190 161 -109 346 -91 497 47 109 100 160 216 161
366 1 136 -32 232 -114 333 -85 104 -206 163 -333 161 -39 0 -87 -6 -107 -14z"/>
<path d="M4420 8017 c-267 -61 -427 -388 -324 -665 24 -65 76 -144 125 -192
86 -84 236 -132 341 -111 281 59 440 357 348 652 -68 219 -289 361 -490 316z"/>
<path d="M9416 8020 c-72 -13 -154 -58 -216 -120 -174 -173 -199 -454 -59
-661 47 -69 94 -111 167 -148 123 -62 230 -62 357 1 155 76 255 250 255 442 0
300 -240 532 -504 486z"/>
<path d="M5320 6843 c-58 -20 -159 -91 -194 -137 -42 -56 -92 -156 -106 -215
-8 -33 -11 -90 -8 -152 5 -92 8 -106 47 -185 52 -105 135 -193 215 -230 80
-36 168 -49 239 -34 339 70 486 478 283 783 -46 69 -153 150 -230 172 -64 19
-188 18 -246 -2z"/>
<path d="M8413 6842 c-150 -54 -262 -190 -300 -365 -28 -132 2 -282 78 -396
52 -78 97 -116 188 -160 68 -32 84 -35 161 -35 75 0 93 4 153 32 94 44 138 81
190 160 74 113 92 170 92 292 0 114 -16 171 -76 277 -38 66 -129 149 -199 182
-74 34 -210 40 -287 13z"/>
<path d="M6736 5690 c-183 -33 -389 -114 -546 -214 -255 -163 -477 -410 -613
-682 -110 -219 -154 -364 -206 -685 -14 -82 -14 -367 -1 -440 5 -30 16 -95 25
-146 49 -292 170 -576 344 -807 134 -179 281 -316 461 -431 146 -94 365 -179
540 -211 129 -24 390 -24 520 0 316 58 663 252 871 488 295 335 434 651 498
1129 41 309 -35 739 -187 1061 -221 470 -656 826 -1135 930 -140 30 -426 34
-571 8z"/>
</g>
</svg>
